<svg width="22" height="27" viewBox="0 0 22 27" fill="none" xmlns="http://www.w3.org/2000/svg">
<path fill-rule="evenodd" clip-rule="evenodd" d="M14.3 0H3.3C2.42559 0.0026115 1.58774 0.351128 0.969433 0.969432C0.351128 1.58774 0.0026115 2.42559 0 3.3L0 18.689C0.0026115 19.5634 0.351128 20.4013 0.969433 21.0196C1.58774 21.6379 2.42559 21.9864 3.3 21.989H14.3C15.1744 21.9864 16.0123 21.6379 16.6306 21.0196C17.2489 20.4013 17.5974 19.5634 17.6 18.689V3.3C17.5974 2.42559 17.2489 1.58774 16.6306 0.969432C16.0123 0.351128 15.1744 0.0026115 14.3 0ZM15.4 18.689C15.3955 18.9793 15.2781 19.2565 15.0728 19.4618C14.8675 19.6671 14.5903 19.7845 14.3 19.789H3.3C3.00968 19.7845 2.73252 19.6671 2.5272 19.4618C2.32189 19.2565 2.20454 18.9793 2.2 18.689V3.3C2.20454 3.00968 2.32189 2.73252 2.5272 2.5272C2.73252 2.32189 3.00968 2.20454 3.3 2.2H14.3C14.9039 2.2099 15.3901 2.6961 15.4 3.3V18.689Z" fill="black"/>
<path fill-rule="evenodd" clip-rule="evenodd" d="M22.0004 7.69961V23.0996C21.9978 23.974 21.6493 24.8119 21.031 25.4302C20.4127 26.0485 19.5748 26.397 18.7004 26.3996H5.50039C5.20865 26.3996 4.92886 26.2837 4.72257 26.0774C4.51628 25.8711 4.40039 25.5913 4.40039 25.2996C4.40039 25.0079 4.51628 24.7281 4.72257 24.5218C4.92886 24.3155 5.20865 24.1996 5.50039 24.1996H18.7004C18.9907 24.1951 19.2679 24.0777 19.4732 23.8724C19.6785 23.6671 19.7959 23.3899 19.8004 23.0996V7.69961C19.8004 7.40787 19.9163 7.12808 20.1226 6.92179C20.3289 6.7155 20.6087 6.59961 20.9004 6.59961C21.1921 6.59961 21.4719 6.7155 21.6782 6.92179C21.8845 7.12808 22.0004 7.40787 22.0004 7.69961Z" fill="black"/>
<path d="M8.8002 17.6004C9.40771 17.6004 9.9002 17.1079 9.9002 16.5004C9.9002 15.8929 9.40771 15.4004 8.8002 15.4004C8.19268 15.4004 7.7002 15.8929 7.7002 16.5004C7.7002 17.1079 8.19268 17.6004 8.8002 17.6004Z" fill="black"/>
<path fill-rule="evenodd" clip-rule="evenodd" d="M13.2004 8.80039C13.2012 9.77567 12.8773 10.7235 12.2797 11.4943C11.6822 12.2651 10.8451 12.815 9.90039 13.0574V13.2004C9.90039 13.4921 9.7845 13.7719 9.57821 13.9782C9.37192 14.1845 9.09213 14.3004 8.80039 14.3004C8.50865 14.3004 8.22886 14.1845 8.02257 13.9782C7.81628 13.7719 7.70039 13.4921 7.70039 13.2004V12.1004C7.70039 11.8087 7.81628 11.5289 8.02257 11.3226C8.22886 11.1163 8.50865 11.0004 8.80039 11.0004C9.23551 11.0004 9.66086 10.8714 10.0226 10.6296C10.3844 10.3879 10.6664 10.0443 10.8329 9.64229C10.9994 9.2403 11.043 8.79795 10.9581 8.37119C10.8732 7.94443 10.6637 7.55243 10.356 7.24476C10.0483 6.93708 9.65635 6.72755 9.22959 6.64266C8.80283 6.55778 8.36048 6.60134 7.95849 6.76786C7.55649 6.93437 7.2129 7.21635 6.97116 7.57814C6.72942 7.93992 6.60039 8.36527 6.60039 8.80039C6.60039 9.09213 6.4845 9.37192 6.27821 9.57821C6.07192 9.7845 5.79213 9.90039 5.50039 9.90039C5.20865 9.90039 4.92886 9.7845 4.72257 9.57821C4.51628 9.37192 4.40039 9.09213 4.40039 8.80039C4.40039 7.63344 4.86396 6.51428 5.68912 5.68912C6.51428 4.86396 7.63344 4.40039 8.80039 4.40039C9.96734 4.40039 11.0865 4.86396 11.9117 5.68912C12.7368 6.51428 13.2004 7.63344 13.2004 8.80039Z" fill="black"/>
</svg>
