<svg width="18" height="20" viewBox="0 0 18 20" fill="none" xmlns="http://www.w3.org/2000/svg">
<path d="M17 6.01673L11 0.763019C10.45 0.271652 9.73796 0 9.00003 0C8.2621 0 7.55006 0.271652 7.00005 0.763019L1.00009 6.01673C0.682458 6.30047 0.428992 6.64853 0.256565 7.03776C0.0841379 7.42698 -0.00329254 7.84842 9.47934e-05 8.27403V17.0036C9.47934e-05 17.7983 0.316163 18.5604 0.878768 19.1224C1.44137 19.6843 2.20443 20 3.00007 20H15C15.7956 20 16.5587 19.6843 17.1213 19.1224C17.6839 18.5604 18 17.7983 18 17.0036V8.26404C18.0019 7.84011 17.9138 7.42059 17.7414 7.0332C17.5691 6.6458 17.3163 6.29935 17 6.01673ZM11 18.0024H7.00005V13.0084C7.00005 12.7435 7.1054 12.4894 7.29294 12.3021C7.48047 12.1148 7.73482 12.0096 8.00004 12.0096H10C10.2652 12.0096 10.5196 12.1148 10.7071 12.3021C10.8947 12.4894 11 12.7435 11 13.0084V18.0024ZM16 17.0036C16 17.2685 15.8946 17.5225 15.7071 17.7098C15.5196 17.8972 15.2652 18.0024 15 18.0024H13V13.0084C13 12.2137 12.6839 11.4515 12.1213 10.8896C11.5587 10.3276 10.7957 10.012 10 10.012H8.00004C7.20439 10.012 6.44134 10.3276 5.87873 10.8896C5.31613 11.4515 5.00006 12.2137 5.00006 13.0084V18.0024H3.00007C2.73486 18.0024 2.48051 17.8972 2.29297 17.7098C2.10544 17.5225 2.00008 17.2685 2.00008 17.0036V8.26404C2.00026 8.12223 2.03067 7.98208 2.0893 7.85291C2.14792 7.72375 2.23341 7.60854 2.34008 7.51494L8.34004 2.27121C8.52252 2.11109 8.75712 2.02278 9.00003 2.02278C9.24294 2.02278 9.47754 2.11109 9.66003 2.27121L15.66 7.51494C15.7667 7.60854 15.8521 7.72375 15.9108 7.85291C15.9694 7.98208 15.9998 8.12223 16 8.26404V17.0036Z" fill="#7E84A3"/>
</svg>
