<svg width="27" height="27" viewBox="0 0 27 27" fill="none" xmlns="http://www.w3.org/2000/svg">
<path fill-rule="evenodd" clip-rule="evenodd" d="M17.8938 20.2767C15.6131 21.9569 12.7818 22.7133 9.96705 22.3943C7.15232 22.0753 4.56208 20.7044 2.71525 18.5562C0.868424 16.4081 -0.0985851 13.6414 0.00795346 10.8104C0.114492 7.97944 1.28671 5.29326 3.28977 3.29004C5.29282 1.28682 7.97877 0.114502 10.8095 0.00795413C13.6403 -0.0985933 16.4067 0.868497 18.5547 2.71548C20.7026 4.56246 22.0734 7.15292 22.3924 9.96788C22.7115 12.7828 21.9551 15.6144 20.275 17.8953L26.4638 24.0824C26.6293 24.2366 26.7621 24.4226 26.8541 24.6293C26.9462 24.836 26.9957 25.0591 26.9997 25.2853C27.0037 25.5116 26.9621 25.7363 26.8774 25.9461C26.7926 26.1559 26.6665 26.3465 26.5065 26.5065C26.3465 26.6665 26.156 26.7926 25.9462 26.8774C25.7364 26.9621 25.5117 27.0037 25.2855 26.9997C25.0593 26.9957 24.8362 26.9462 24.6295 26.8541C24.4228 26.762 24.2368 26.6293 24.0826 26.4637L17.8938 20.2767ZM19.0956 11.2319C19.0956 13.3173 18.2673 15.3173 16.7928 16.7919C15.3183 18.2665 13.3185 19.095 11.2333 19.095C9.14803 19.095 7.14821 18.2665 5.67373 16.7919C4.19925 15.3173 3.3709 13.3173 3.3709 11.2319C3.3709 9.14655 4.19925 7.14656 5.67373 5.67196C7.14821 4.19736 9.14803 3.36893 11.2333 3.36893C13.3185 3.36893 15.3183 4.19736 16.7928 5.67196C18.2673 7.14656 19.0956 9.14655 19.0956 11.2319Z" fill="#363CD5"/>
</svg>
