<svg width="20" height="16" viewBox="0 0 20 16" fill="none" xmlns="http://www.w3.org/2000/svg">
<path d="M3.80958 11.0769V8.61538H6.28575V11.0769H3.80958ZM16.1904 1.83877C16.1885 1.35042 15.9919 0.882738 15.6439 0.538112C15.2958 0.193487 14.8245 -3.90679e-06 14.3333 0H1.85713C1.36459 0 0.892218 0.194505 0.543939 0.540726C0.195661 0.886947 0 1.35652 0 1.84615V12.9231C0 13.7391 0.326102 14.5218 0.906566 15.0988C1.48703 15.6758 2.27431 16 3.09521 16H16.9048C17.7257 16 18.513 15.6758 19.0934 15.0988C19.6739 14.5218 20 13.7391 20 12.9231V5.53846C20 5.04883 19.8043 4.57925 19.4561 4.23303C19.1078 3.88681 18.6354 3.69231 18.1429 3.69231H17.4285V12.5908C17.4285 12.754 17.3633 12.9105 17.2472 13.0259C17.1311 13.1413 16.9736 13.2062 16.8095 13.2062C16.6453 13.2062 16.4878 13.1413 16.3717 13.0259C16.2556 12.9105 16.1904 12.754 16.1904 12.5908V1.83877ZM2.5715 4.30769C2.5715 4.14448 2.63672 3.98796 2.75281 3.87255C2.86891 3.75714 3.02636 3.69231 3.19054 3.69231H13.0952C13.2594 3.69231 13.4168 3.75714 13.5329 3.87255C13.649 3.98796 13.7143 4.14448 13.7143 4.30769C13.7143 4.4709 13.649 4.62743 13.5329 4.74284C13.4168 4.85824 13.2594 4.92308 13.0952 4.92308H3.19054C3.02636 4.92308 2.86891 4.85824 2.75281 4.74284C2.63672 4.62743 2.5715 4.4709 2.5715 4.30769ZM9.38096 7.38462H13.0952C13.2594 7.38462 13.4168 7.44945 13.5329 7.56486C13.649 7.68026 13.7143 7.83679 13.7143 8C13.7143 8.16321 13.649 8.31974 13.5329 8.43514C13.4168 8.55055 13.2594 8.61538 13.0952 8.61538H9.38096C9.21678 8.61538 9.05932 8.55055 8.94323 8.43514C8.82714 8.31974 8.76192 8.16321 8.76192 8C8.76192 7.83679 8.82714 7.68026 8.94323 7.56486C9.05932 7.44945 9.21678 7.38462 9.38096 7.38462ZM8.76192 11.6923C8.76192 11.5291 8.82714 11.3726 8.94323 11.2572C9.05932 11.1418 9.21678 11.0769 9.38096 11.0769H13.0952C13.2594 11.0769 13.4168 11.1418 13.5329 11.2572C13.649 11.3726 13.7143 11.5291 13.7143 11.6923C13.7143 11.8555 13.649 12.012 13.5329 12.1275C13.4168 12.2429 13.2594 12.3077 13.0952 12.3077H9.38096C9.21678 12.3077 9.05932 12.2429 8.94323 12.1275C8.82714 12.012 8.76192 11.8555 8.76192 11.6923ZM3.19054 7.38462H6.90479C7.06897 7.38462 7.22643 7.44945 7.34252 7.56486C7.45861 7.68026 7.52383 7.83679 7.52383 8V11.6923C7.52383 11.8555 7.45861 12.012 7.34252 12.1275C7.22643 12.2429 7.06897 12.3077 6.90479 12.3077H3.19054C3.02636 12.3077 2.86891 12.2429 2.75281 12.1275C2.63672 12.012 2.5715 11.8555 2.5715 11.6923V8C2.5715 7.83679 2.63672 7.68026 2.75281 7.56486C2.86891 7.44945 3.02636 7.38462 3.19054 7.38462Z" fill="#7E84A3"/>
</svg>
