<svg width="28" height="27" viewBox="0 0 28 27" fill="none" xmlns="http://www.w3.org/2000/svg">
<path fill-rule="evenodd" clip-rule="evenodd" d="M10.8829 20.7778L12.0566 21.9549L8.42904 25.5808L7.25531 24.4054L10.8829 20.7778ZM8.46345 18.3594L9.63884 19.5348L4.80263 24.371L3.62724 23.1956L8.46345 18.3594ZM6.04485 15.9426L7.22024 17.118L1.17539 23.1628L0 21.9874L6.04485 15.9426ZM16.3234 3.24625C21.5221 -1.95239 26.9002 0.6461 26.9551 0.6727L27.2045 0.795725L27.3275 1.0451C27.3541 1.0983 29.9526 6.47649 24.7523 11.6768L22.6143 13.8148L22.5761 23.5254L19.3292 26.7723L14.493 21.9377L6.06247 13.5072L1.22625 8.66933L4.47312 5.42246L14.1838 5.38589L16.3234 3.24625ZM20.9452 15.4839L15.6684 20.7624L19.3292 24.4215L20.9169 22.8338L20.9452 15.4839ZM25.9476 2.04759C24.9402 1.66854 21.261 0.657737 17.4988 4.42164L8.41324 13.5072L14.493 19.587L23.5769 10.5014C27.3242 6.75413 26.3184 3.04675 25.9476 2.04759ZM12.5146 7.05504L5.16472 7.08164L3.57703 8.66933L7.23786 12.3318L12.5146 7.05504Z" fill="black"/>
<path fill-rule="evenodd" clip-rule="evenodd" d="M22.3853 4.8206C21.6405 4.80065 20.4651 5.0068 19.2748 6.19715L18.6846 6.78567L21.2132 9.31267L21.8018 8.72581C23.0004 7.52548 23.2149 6.37337 23.185 5.61693L23.1534 4.85052L22.3853 4.8206Z" fill="black"/>
</svg>
