<svg width="20" height="18" viewBox="0 0 20 18" fill="none" xmlns="http://www.w3.org/2000/svg">
<path d="M16.6666 11.25C15.9775 11.251 15.3056 11.4677 14.743 11.8706C14.1804 12.2734 13.7546 12.8425 13.524 13.5H4.81479C4.12719 13.5 3.46776 13.2234 2.98156 12.7312C2.49536 12.2389 2.22221 11.5712 2.22221 10.875C2.22221 10.1788 2.49536 9.51113 2.98156 9.01884C3.46776 8.52656 4.12719 8.25 4.81479 8.25H13.7036C14.7841 8.25 15.8204 7.8154 16.5844 7.04182C17.3485 6.26823 17.7777 5.21902 17.7777 4.125C17.7777 3.03098 17.3485 1.98177 16.5844 1.20818C15.8204 0.434597 14.7841 0 13.7036 0H4.81479C4.52011 6.28765e-09 4.23749 0.118526 4.02912 0.329505C3.82075 0.540483 3.70368 0.826631 3.70368 1.125C3.70368 1.42337 3.82075 1.70952 4.02912 1.9205C4.23749 2.13147 4.52011 2.25 4.81479 2.25H13.7036C14.1948 2.25 14.6658 2.44754 15.0131 2.79917C15.3604 3.15081 15.5555 3.62772 15.5555 4.125C15.5555 4.62228 15.3604 5.09919 15.0131 5.45082C14.6658 5.80246 14.1948 6 13.7036 6H4.81479C3.53783 6 2.31317 6.51361 1.41022 7.42785C0.507271 8.34209 0 9.58207 0 10.875C0 12.1679 0.507271 13.4079 1.41022 14.3221C2.31317 15.2364 3.53783 15.75 4.81479 15.75H13.524C13.7277 16.3334 14.0859 16.8488 14.5594 17.24C15.0329 17.6311 15.6034 17.883 16.2088 17.968C16.8141 18.053 17.4308 17.9679 17.9916 17.7219C18.5523 17.476 19.0355 17.0787 19.3884 16.5735C19.7412 16.0683 19.95 15.4746 19.9921 14.8573C20.0342 14.24 19.9078 13.6229 19.6269 13.0734C19.3459 12.5239 18.9212 12.0632 18.3991 11.7416C17.877 11.4201 17.2777 11.25 16.6666 11.25ZM16.6666 15.75C16.4468 15.75 16.232 15.684 16.0493 15.5604C15.8666 15.4368 15.7241 15.2611 15.6401 15.0555C15.556 14.85 15.534 14.6238 15.5768 14.4055C15.6197 14.1873 15.7255 13.9868 15.8809 13.8295C16.0363 13.6722 16.2343 13.565 16.4498 13.5216C16.6653 13.4782 16.8888 13.5005 17.0918 13.5856C17.2948 13.6708 17.4683 13.815 17.5904 14C17.7125 14.185 17.7777 14.4025 17.7777 14.625C17.7777 14.9234 17.6606 15.2095 17.4522 15.4205C17.2439 15.6315 16.9613 15.75 16.6666 15.75Z" fill="#7E84A3"/>
</svg>
